<mxfile host="65bd71144e">
    <diagram id="Vo6I1HoQ9-eTyacnhVUb" name="Page-1">
        <mxGraphModel dx="1458" dy="969" grid="0" gridSize="10" guides="1" tooltips="1" connect="1" arrows="1" fold="1" page="0" pageScale="1" pageWidth="850" pageHeight="1100" background="#FFFFCC" math="0" shadow="0">
            <root>
                <mxCell id="0"/>
                <mxCell id="1" parent="0"/>
                <mxCell id="root" value="&lt;b&gt;Standardised Disaster Event&lt;/b&gt;" style="rectangle;fillColor=lightgray;whiteSpace=wrap;html=1;strokeColor=#000000;fontColor=#000000;" parent="1" vertex="1">
                    <mxGeometry x="300" y="20" width="200" height="60" as="geometry"/>
                </mxCell>
                <mxCell id="disaster_impact_id" value="Disaster_Impact_ID\nType: string, null\nDescription: Unique identifier after consolidation." style="rectangle;fillColor=lightblue;whiteSpace=wrap;html=1;strokeColor=#000000;fontColor=#000000;" parent="1" vertex="1">
                    <mxGeometry x="100" y="120" width="220" height="80" as="geometry"/>
                </mxCell>
                <mxCell id="event_id" value="Event_ID\nType: array, null\nDescription: Consolidated event IDs." style="rectangle;fillColor=lightyellow;whiteSpace=wrap;html=1;strokeColor=#000000;fontColor=#000000;" parent="1" vertex="1">
                    <mxGeometry x="400" y="120" width="220" height="80" as="geometry"/>
                </mxCell>
                <mxCell id="source_event_ids" value="Source_Event_IDs\nType: array\nDescription: Original IDs from sources." style="rectangle;fillColor=lightgreen;whiteSpace=wrap;html=1;strokeColor=#000000;fontColor=#000000;" parent="1" vertex="1">
                    <mxGeometry x="700" y="120" width="220" height="80" as="geometry"/>
                </mxCell>
                <mxCell id="event_name" value="Event_Name\nType: array, null\nDescription: Array of event names." style="rectangle;fillColor=lightpink;whiteSpace=wrap;html=1;strokeColor=#000000;fontColor=#000000;" parent="1" vertex="1">
                    <mxGeometry x="100" y="240" width="220" height="80" as="geometry"/>
                </mxCell>
                <mxCell id="event_type" value="Event_Type\nType: array, null\nDescription: Group key for event types." style="rectangle;fillColor=lightyellow;whiteSpace=wrap;html=1;strokeColor=#000000;fontColor=#000000;" parent="1" vertex="1">
                    <mxGeometry x="400" y="240" width="220" height="80" as="geometry"/>
                </mxCell>
                <mxCell id="country" value="Country\nType: array, null\nDescription: Group key for countries." style="rectangle;fillColor=lightyellow;whiteSpace=wrap;html=1;strokeColor=#000000;fontColor=#000000;" parent="1" vertex="1">
                    <mxGeometry x="700" y="240" width="220" height="80" as="geometry"/>
                </mxCell>
                <mxCell id="latitude" value="Latitude\nType: array\nDescription: Array of latitude values." style="rectangle;fillColor=lightgreen;whiteSpace=wrap;html=1;strokeColor=#000000;fontColor=#000000;" parent="1" vertex="1">
                    <mxGeometry x="100" y="360" width="220" height="80" as="geometry"/>
                </mxCell>
                <mxCell id="longitude" value="Longitude\nType: array\nDescription: Array of longitude values." style="rectangle;fillColor=lightgreen;whiteSpace=wrap;html=1;strokeColor=#000000;fontColor=#000000;" parent="1" vertex="1">
                    <mxGeometry x="400" y="360" width="220" height="80" as="geometry"/>
                </mxCell>
                <mxCell id="date" value="Date\nType: string, null\nFormat: ISO 8601\nDescription: Group key for event date." style="rectangle;fillColor=lightblue;whiteSpace=wrap;html=1;strokeColor=#000000;fontColor=#000000;" parent="1" vertex="1">
                    <mxGeometry x="700" y="360" width="220" height="80" as="geometry"/>
                </mxCell>
                <mxCell id="edge_root_disaster_impact_id" style="strokeColor=#000000;fontColor=#000000;" parent="1" source="root" target="disaster_impact_id" edge="1">
                    <mxGeometry relative="1" as="geometry"/>
                </mxCell>
                <mxCell id="edge_root_event_id" style="strokeColor=#000000;fontColor=#000000;" parent="1" source="root" target="event_id" edge="1">
                    <mxGeometry relative="1" as="geometry"/>
                </mxCell>
                <mxCell id="edge_root_source_event_ids" style="strokeColor=#000000;fontColor=#000000;" parent="1" source="root" target="source_event_ids" edge="1">
                    <mxGeometry relative="1" as="geometry"/>
                </mxCell>
                <mxCell id="edge_root_event_name" style="strokeColor=#000000;fontColor=#000000;" parent="1" source="root" target="event_name" edge="1">
                    <mxGeometry relative="1" as="geometry"/>
                </mxCell>
                <mxCell id="edge_root_event_type" style="strokeColor=#000000;fontColor=#000000;" parent="1" source="root" target="event_type" edge="1">
                    <mxGeometry relative="1" as="geometry"/>
                </mxCell>
                <mxCell id="edge_root_country" style="strokeColor=#000000;fontColor=#000000;" parent="1" source="root" target="country" edge="1">
                    <mxGeometry relative="1" as="geometry"/>
                </mxCell>
                <mxCell id="edge_root_latitude" style="strokeColor=#000000;fontColor=#000000;" parent="1" source="root" target="latitude" edge="1">
                    <mxGeometry relative="1" as="geometry"/>
                </mxCell>
                <mxCell id="edge_root_longitude" style="strokeColor=#000000;fontColor=#000000;" parent="1" source="root" target="longitude" edge="1">
                    <mxGeometry relative="1" as="geometry"/>
                </mxCell>
                <mxCell id="edge_root_date" style="strokeColor=#000000;fontColor=#000000;" parent="1" source="root" target="date" edge="1">
                    <mxGeometry relative="1" as="geometry"/>
                </mxCell>
            </root>
        </mxGraphModel>
    </diagram>
</mxfile>